<svg width="30" height="30" viewBox="0 0 30 30" fill="none" xmlns="http://www.w3.org/2000/svg">
<path d="M29.2241 15.3213C29.2241 17.3705 29.1836 19.4256 29.2356 21.4747C29.3225 25.102 27.0828 27.9048 24.2298 29.1532C23.084 29.6537 21.8803 29.9187 20.636 29.9187C16.7413 29.9245 12.8408 29.9775 8.9461 29.901C6.01204 29.8421 3.59883 28.5938 1.86848 26.1324C0.959911 24.837 0.525879 23.3649 0.525879 21.7691C0.525879 17.5472 0.525879 13.3311 0.525879 9.10909C0.525879 5.66439 2.1752 3.25604 5.10347 1.68972C6.37663 1.01256 7.75975 0.724029 9.20073 0.71814C12.9797 0.71814 16.7645 0.694587 20.5434 0.729917C23.4775 0.753471 25.9254 1.89582 27.731 4.29828C28.738 5.64083 29.2241 7.18359 29.2241 8.87945C29.2241 11.0228 29.2241 13.1721 29.2241 15.3213ZM2.66132 15.3213C2.66132 17.4824 2.66132 19.6375 2.66132 21.7986C2.66132 22.7643 2.88123 23.6711 3.37313 24.4896C4.66365 26.6388 6.6139 27.687 9.03291 27.7282C12.916 27.7871 16.805 27.7517 20.6939 27.74C21.6488 27.74 22.5747 27.5398 23.437 27.1217C25.7865 25.9793 27.1002 24.1598 27.0886 21.4276C27.0655 17.2468 27.0828 13.0661 27.0828 8.88534C27.0828 7.70177 26.753 6.61831 26.0643 5.66439C24.7333 3.8331 22.893 2.93217 20.6939 2.90862C16.8165 2.86151 12.9392 2.89096 9.06184 2.89684C8.23429 2.89684 7.43567 3.06761 6.6602 3.36203C4.53055 4.16874 2.55136 6.21201 2.64395 9.22097C2.7134 11.2584 2.66132 13.2899 2.66132 15.3213Z" fill="white"/>
<path d="M14.9068 21.563C11.1741 21.563 8.16485 18.5364 8.15907 14.7678C8.15328 11.0582 11.1857 8.01975 14.8952 8.01975C18.6163 8.01387 21.6372 11.0464 21.643 14.7855C21.643 18.5188 18.6279 21.5572 14.9068 21.563ZM14.9068 19.3843C17.4473 19.3843 19.5076 17.3175 19.5018 14.7737C19.496 12.2535 17.4358 10.1926 14.9068 10.1926C12.3663 10.1926 10.2945 12.2476 10.2945 14.7855C10.3003 17.3293 12.3663 19.3902 14.9068 19.3843Z" fill="white"/>
<path d="M22.4242 5.9588C23.2055 5.9588 23.8421 6.63597 23.8421 7.46623C23.8363 8.29649 23.1939 8.96777 22.4127 8.96188C21.643 8.95599 21.0122 8.28471 21.0122 7.47212C21.0064 6.64185 21.643 5.9588 22.4242 5.9588Z" fill="white"/>
</svg>
