<svg width="42" height="43" viewBox="0 0 42 43" fill="none" xmlns="http://www.w3.org/2000/svg">
<path d="M12.3057 6.75345C9.39864 6.75345 6.9989 9.19519 6.9989 12.1531V30.3718C6.9989 33.3297 9.39864 35.7714 12.3057 35.7714H30.2109C33.118 35.7714 35.5177 33.3297 35.5177 30.3718V12.1531C35.5177 9.19519 33.118 6.75345 30.2109 6.75345H12.3057ZM12.3057 9.39145H30.2109C31.7165 9.39145 32.9251 10.6211 32.9251 12.1531V30.3718C32.9251 31.9037 31.7165 33.1334 30.2109 33.1334H12.3057C10.8001 33.1334 9.59152 31.9037 9.59152 30.3718V12.1531C9.59152 10.6211 10.8001 9.39145 12.3057 9.39145ZM20.8937 16.275C19.9422 16.2657 19.122 16.2941 18.6657 16.5223C18.3623 16.674 18.118 16.9971 18.2606 17.0169C18.4369 17.0407 18.8595 17.1363 19.0708 17.4291C19.3443 17.8077 19.3138 18.6657 19.3138 18.6657C19.3138 18.6657 19.473 21.0122 18.9492 21.3037C18.5902 21.5028 18.1044 21.0626 17.0453 19.2015C16.5021 18.2479 16.1136 17.223 16.1136 17.223C16.1136 17.223 16.0118 16.9988 15.8705 16.8933C15.6994 16.7653 15.4654 16.7284 15.4654 16.7284L12.9538 16.7696C12.9538 16.7696 12.5659 16.7656 12.4272 16.9345C12.3027 17.0848 12.3867 17.3879 12.3867 17.3879C12.3867 17.3879 14.3924 22.1379 16.6402 24.5187C18.7039 26.7003 21.0557 26.5384 21.0557 26.5384H22.109C22.109 26.5384 22.4318 26.5117 22.5951 26.3323C22.7455 26.1675 22.7166 25.8377 22.7166 25.8377C22.7166 25.8377 22.705 24.4013 23.3648 24.189C24.0155 23.9792 24.8682 25.5901 25.7549 26.2087C26.4251 26.6769 26.9296 26.5797 26.9296 26.5797L29.2792 26.5384C29.2792 26.5384 30.5146 26.4586 29.9274 25.4667C29.8794 25.3863 29.6049 24.7459 28.1854 23.4058C26.6999 22.0024 26.8814 22.2055 28.6716 19.7786C29.7618 18.3 30.2255 17.4034 30.0894 17.0169C29.9598 16.6489 29.1577 16.7696 29.1577 16.7696H26.484C26.484 16.7696 26.2659 16.7623 26.1195 16.852C25.9756 16.9391 25.8764 17.1406 25.8764 17.1406C25.8764 17.1406 25.4668 18.2693 24.9042 19.2427C23.7167 21.2951 23.2352 21.3891 23.0407 21.2624C22.5883 20.9657 22.7166 20.0846 22.7166 19.4488C22.7166 17.4598 23.0232 16.6136 22.1495 16.3986C21.8591 16.3274 21.6365 16.2829 20.8937 16.275Z" fill="white"/>
</svg>
